# xmcd
#
# Track frame offsets:
#	150
#	11425
#	24701
#	37265
#	47498
#	60428
#	70549
#	82837
#	95082
#	103869
#	125451
#	135803
#	147766
#	158597
#	174506
#	186695
#
# Disc length: 2617
#
# Revision: 1
# Processed by: cddbd v1.5.1PL0 Copyright (c) Steve Scherf et al.
# Submitted via: Grip 2.96
# Normalized: r0:DSETVAR1
#
DISCID=ce0a3710
DTITLE=Various Artist - The Best of Country 3, 48 everlasting country top hits [CD2)
DYEAR=1900
DGENRE=
TTITLE0=Patsy Cline - Just out of reach
TTITLE1=John Denver - Rocky Mountain high
TTITLE2=Don Williams - Coming apart
TTITLE3=Willie Nelson - On the road again
TTITLE4=Faron Young - Apartment nr.9
TTITLE5=Johnny Russell - Today I started loving you again
TTITLE6=Del Shannon - She thinks I still care
TTITLE7=Jim Reeves - Four walls
TTITLE8=Loretta Lynn - We've come a long way baby
TTITLE9=John Denver - Eagles and horses
TTITLE10=Johnny Paycheck - A 11
TTITLE11=Skeeter Davis - End of the world
TTITLE12=Charley Pride - Oklahoma morning
TTITLE13=Brenda Lee - You're the one that I want
TTITLE14=Johnny Dollar - Big, big rollin' man
TTITLE15=Stonewall Jackson - Shake 'em up and roll 'em
EXTD=
EXTT0=
EXTT1=
EXTT2=
EXTT3=
EXTT4=
EXTT5=
EXTT6=
EXTT7=
EXTT8=
EXTT9=
EXTT10=
EXTT11=
EXTT12=
EXTT13=
EXTT14=
EXTT15=
PLAYORDER=
